<?xml version="1.0" encoding="UTF-8"?>
<svg width="32" height="32" viewBox="0 0 32 32" fill="none" xmlns="http://www.w3.org/2000/svg">
  <path d="M16 2C8.268 2 2 8.268 2 16s6.268 14 14 14 14-6.268 14-14S23.732 2 16 2z" fill="#4F46E5"/>
  <path d="M16 6c-5.523 0-10 4.477-10 10s4.477 10 10 10 10-4.477 10-10S21.523 6 16 6zm0 18c-4.418 0-8-3.582-8-8s3.582-8 8-8 8 3.582 8 8-3.582 8-8 8z" fill="white"/>
  <path d="M16 10c-3.314 0-6 2.686-6 6s2.686 6 6 6 6-2.686 6-6-2.686-6-6-6zm0 10c-2.209 0-4-1.791-4-4s1.791-4 4-4 4 1.791 4 4-1.791 4-4 4z" fill="#4F46E5"/>
</svg> 